<svg xmlns="http://www.w3.org/2000/svg" width="64" height="64" viewBox="0 0 64 64">
  <rect width="64" height="64" fill="none"/>
  <ellipse cx="32" cy="56" rx="18" ry="5" fill="#1d1b20" opacity=".32"/>
  <path d="M18 46c0-10 5-17 14-17s14 7 14 17v9H18z" fill="#59465f" stroke="#211e24" stroke-width="2"/>
  <path d="M21 31l-5-9 10 3M43 31l5-9-10 3" fill="#886e73" stroke="#211e24" stroke-width="2" stroke-linejoin="round"/>
  <circle cx="32" cy="29" r="13" fill="#77706c" stroke="#211e24" stroke-width="2"/>
  <path d="M23 20c4-7 14-9 20 0-4 0-7 2-11 5-3-3-6-5-9-5z" fill="#3d3148"/>
  <circle cx="27" cy="29" r="2" fill="#d9c9a9"/><circle cx="37" cy="29" r="2" fill="#d9c9a9"/>
  <circle cx="27" cy="29" r=".8" fill="#3d1d43"/><circle cx="37" cy="29" r=".8" fill="#3d1d43"/>
  <path d="M32 32l-2 2 2 1 2-1z" fill="#b58f8d"/>
  <path d="M23 43l-5 10M41 43l5 10" stroke="#c7b7d5" stroke-width="3" stroke-linecap="round"/>
  <path d="M46 18v30" stroke="#2b242c" stroke-width="3"/>
  <circle cx="46" cy="17" r="5" fill="#a86fcb" stroke="#2b242c" stroke-width="2"/>
  <circle cx="46" cy="17" r="2" fill="#d8b6f3"/>
  <path d="M26 47h12l3 8H23z" fill="#403449" stroke="#211e24" stroke-width="2"/>
</svg>
