<svg xmlns="http://www.w3.org/2000/svg" width="182" height="164" viewBox="0 0 182 164">
  <title>STOREHOUSE — Port Felin facade sprite</title>
  <desc>Editable facade art keyed to the exterior map footprint and linked entrance; 16px left / 48px top margins.</desc>
  <g stroke-linejoin="round"><rect x="22" y="138" width="138" height="11" rx="0" fill="#221f1d" opacity=".22"/><rect x="16" y="48" width="150" height="92" rx="0" fill="#302c28" /><rect x="20" y="51" width="142" height="86" rx="0" fill="#9d8b72" /><rect x="22" y="54" width="138" height="79" rx="0" fill="#82725d" /><rect x="20" y="123" width="142" height="15" rx="0" fill="#5d4b3b" /><rect x="27" y="63" width="27" height="1" rx="0" fill="#3d352d" opacity=".095"/><rect x="68" y="63" width="27" height="1" rx="0" fill="#3d352d" opacity=".095"/><rect x="109" y="63" width="12" height="1" rx="0" fill="#3d352d" opacity=".095"/><rect x="40" y="80" width="27" height="1" rx="0" fill="#3d352d" opacity=".095"/><rect x="81" y="80" width="27" height="1" rx="0" fill="#3d352d" opacity=".095"/><rect x="122" y="80" width="12" height="1" rx="0" fill="#3d352d" opacity=".095"/><rect x="27" y="97" width="27" height="1" rx="0" fill="#3d352d" opacity=".095"/><rect x="68" y="97" width="27" height="1" rx="0" fill="#3d352d" opacity=".095"/><rect x="109" y="97" width="12" height="1" rx="0" fill="#3d352d" opacity=".095"/><rect x="40" y="114" width="27" height="1" rx="0" fill="#3d352d" opacity=".095"/><rect x="81" y="114" width="27" height="1" rx="0" fill="#3d352d" opacity=".095"/><rect x="122" y="114" width="12" height="1" rx="0" fill="#3d352d" opacity=".095"/><rect x="46" y="58" width="2" height="1" rx="0" fill="#9d8b72" opacity=".55"/><rect x="48" y="108" width="2" height="1" rx="0" fill="#9d8b72" opacity=".55"/><rect x="125" y="109" width="2" height="1" rx="0" fill="#9d8b72" opacity=".55"/><rect x="49" y="83" width="2" height="1" rx="0" fill="#9d8b72" opacity=".55"/><rect x="133" y="114" width="2" height="1" rx="0" fill="#9d8b72" opacity=".55"/><rect x="30" y="116" width="2" height="1" rx="0" fill="#9d8b72" opacity=".55"/><rect x="47" y="117" width="2" height="1" rx="0" fill="#9d8b72" opacity=".55"/><rect x="70" y="76" width="2" height="1" rx="0" fill="#9d8b72" opacity=".55"/><rect x="91" y="104" width="2" height="1" rx="0" fill="#9d8b72" opacity=".55"/><rect x="34" y="78" width="2" height="1" rx="0" fill="#9d8b72" opacity=".55"/><rect x="51" y="70" width="2" height="1" rx="0" fill="#9d8b72" opacity=".55"/><rect x="127" y="85" width="2" height="1" rx="0" fill="#9d8b72" opacity=".55"/><rect x="20" y="54" width="8" height="77" rx="0" fill="#554436" /><rect x="154" y="54" width="8" height="77" rx="0" fill="#554436" /><rect x="20" y="56" width="142" height="5" rx="0" fill="#554436" /><rect x="20" y="120" width="142" height="4" rx="0" fill="#554436" /><line x1="28" y1="65" x2="28" y2="120" stroke="#584937" stroke-width="1.8" /><line x1="46" y1="65" x2="46" y2="120" stroke="#584937" stroke-width="1.8" /><line x1="64" y1="65" x2="64" y2="120" stroke="#584937" stroke-width="1.8" /><line x1="82" y1="65" x2="82" y2="120" stroke="#584937" stroke-width="1.8" /><line x1="100" y1="65" x2="100" y2="120" stroke="#584937" stroke-width="1.8" /><line x1="118" y1="65" x2="118" y2="120" stroke="#584937" stroke-width="1.8" /><line x1="136" y1="65" x2="136" y2="120" stroke="#584937" stroke-width="1.8" /><line x1="154" y1="65" x2="154" y2="120" stroke="#584937" stroke-width="1.8" /><path d="M29 70l124 39" fill="none" stroke="#554436" stroke-width="5" /><rect x="34" y="74" width="26" height="25" rx="0" fill="#554436" stroke="#302c28" stroke-width="2" /><rect x="37" y="77" width="20" height="18" rx="0" fill="#666d68" stroke="#302c28" stroke-width="1" /><rect x="39" y="78" width="4" height="7" rx="0" fill="#d2e0d0" opacity=".28"/><line x1="47" y1="77" x2="47" y2="95" stroke="#302c28" stroke-width="1.7" /><line x1="37" y1="87" x2="57" y2="87" stroke="#302c28" stroke-width="1.6" /><rect x="32" y="97" width="30" height="4" rx="0" fill="#bca47b" stroke="#302c28" stroke-width="1" /><rect x="26" y="76" width="6" height="18" rx="0" fill="#554436" stroke="#302c28" stroke-width="1" /><line x1="28" y1="79" x2="28" y2="91" stroke="#bca47b" stroke-width="1" opacity=".5"/><rect x="62" y="76" width="6" height="18" rx="0" fill="#554436" stroke="#302c28" stroke-width="1" /><line x1="64" y1="79" x2="64" y2="91" stroke="#bca47b" stroke-width="1" opacity=".5"/><rect x="122" y="74" width="26" height="25" rx="0" fill="#554436" stroke="#302c28" stroke-width="2" /><rect x="125" y="77" width="20" height="18" rx="0" fill="#666d68" stroke="#302c28" stroke-width="1" /><rect x="127" y="78" width="4" height="7" rx="0" fill="#d2e0d0" opacity=".28"/><line x1="135" y1="77" x2="135" y2="95" stroke="#302c28" stroke-width="1.7" /><line x1="125" y1="87" x2="145" y2="87" stroke="#302c28" stroke-width="1.6" /><rect x="120" y="97" width="30" height="4" rx="0" fill="#bca47b" stroke="#302c28" stroke-width="1" /><rect x="114" y="76" width="6" height="18" rx="0" fill="#554436" stroke="#302c28" stroke-width="1" /><line x1="116" y1="79" x2="116" y2="91" stroke="#bca47b" stroke-width="1" opacity=".5"/><rect x="150" y="76" width="6" height="18" rx="0" fill="#554436" stroke="#302c28" stroke-width="1" /><line x1="152" y1="79" x2="152" y2="91" stroke="#bca47b" stroke-width="1" opacity=".5"/><rect x="70" y="98" width="42" height="42" rx="0" fill="#5d4b3b" stroke="#302c28" stroke-width="2" /><line x1="76" y1="101" x2="76" y2="137" stroke="#302c28" stroke-width="2" /><line x1="91" y1="101" x2="91" y2="137" stroke="#302c28" stroke-width="2" /><line x1="106" y1="101" x2="106" y2="137" stroke="#302c28" stroke-width="2" /><path d="M76.0 103 l30 30 M106.0 103 l-30 30" fill="none" stroke="#b39a77" stroke-width="2" /><defs><clipPath id="roofclip"><polygon points="6,51 91.0,9 176,51"/></clipPath></defs><path d="M6 51L91.0 9L176 51Z" fill="#61504b" stroke="#302c28" stroke-width="3" /><g clip-path="url(#roofclip)"><line x1="2" y1="26" x2="180" y2="26" stroke="#433b3a" stroke-width="2" /><rect x="-6" y="18" width="18" height="7" rx="0" fill="#61504b" opacity=".6"/><line x1="12" y1="19" x2="12" y2="25" stroke="#433b3a" stroke-width="1" /><rect x="14" y="18" width="18" height="7" rx="0" fill="#81695b" opacity=".6"/><line x1="32" y1="19" x2="32" y2="25" stroke="#433b3a" stroke-width="1" /><rect x="34" y="18" width="18" height="7" rx="0" fill="#61504b" opacity=".6"/><line x1="52" y1="19" x2="52" y2="25" stroke="#433b3a" stroke-width="1" /><rect x="54" y="18" width="18" height="7" rx="0" fill="#61504b" opacity=".6"/><line x1="72" y1="19" x2="72" y2="25" stroke="#433b3a" stroke-width="1" /><rect x="74" y="18" width="18" height="7" rx="0" fill="#61504b" opacity=".6"/><line x1="92" y1="19" x2="92" y2="25" stroke="#433b3a" stroke-width="1" /><rect x="94" y="18" width="18" height="7" rx="0" fill="#81695b" opacity=".6"/><line x1="112" y1="19" x2="112" y2="25" stroke="#433b3a" stroke-width="1" /><rect x="114" y="18" width="18" height="7" rx="0" fill="#61504b" opacity=".6"/><line x1="132" y1="19" x2="132" y2="25" stroke="#433b3a" stroke-width="1" /><rect x="134" y="18" width="18" height="7" rx="0" fill="#61504b" opacity=".6"/><line x1="152" y1="19" x2="152" y2="25" stroke="#433b3a" stroke-width="1" /><rect x="154" y="18" width="18" height="7" rx="0" fill="#61504b" opacity=".6"/><line x1="172" y1="19" x2="172" y2="25" stroke="#433b3a" stroke-width="1" /><rect x="174" y="18" width="18" height="7" rx="0" fill="#81695b" opacity=".6"/><line x1="192" y1="19" x2="192" y2="25" stroke="#433b3a" stroke-width="1" /><line x1="2" y1="36" x2="180" y2="36" stroke="#433b3a" stroke-width="2" /><rect x="4" y="28" width="18" height="7" rx="0" fill="#61504b" opacity=".6"/><line x1="22" y1="29" x2="22" y2="35" stroke="#433b3a" stroke-width="1" /><rect x="24" y="28" width="18" height="7" rx="0" fill="#61504b" opacity=".6"/><line x1="42" y1="29" x2="42" y2="35" stroke="#433b3a" stroke-width="1" /><rect x="44" y="28" width="18" height="7" rx="0" fill="#61504b" opacity=".6"/><line x1="62" y1="29" x2="62" y2="35" stroke="#433b3a" stroke-width="1" /><rect x="64" y="28" width="18" height="7" rx="0" fill="#81695b" opacity=".6"/><line x1="82" y1="29" x2="82" y2="35" stroke="#433b3a" stroke-width="1" /><rect x="84" y="28" width="18" height="7" rx="0" fill="#61504b" opacity=".6"/><line x1="102" y1="29" x2="102" y2="35" stroke="#433b3a" stroke-width="1" /><rect x="104" y="28" width="18" height="7" rx="0" fill="#61504b" opacity=".6"/><line x1="122" y1="29" x2="122" y2="35" stroke="#433b3a" stroke-width="1" /><rect x="124" y="28" width="18" height="7" rx="0" fill="#61504b" opacity=".6"/><line x1="142" y1="29" x2="142" y2="35" stroke="#433b3a" stroke-width="1" /><rect x="144" y="28" width="18" height="7" rx="0" fill="#81695b" opacity=".6"/><line x1="162" y1="29" x2="162" y2="35" stroke="#433b3a" stroke-width="1" /><rect x="164" y="28" width="18" height="7" rx="0" fill="#61504b" opacity=".6"/><line x1="182" y1="29" x2="182" y2="35" stroke="#433b3a" stroke-width="1" /><rect x="184" y="28" width="18" height="7" rx="0" fill="#61504b" opacity=".6"/><line x1="202" y1="29" x2="202" y2="35" stroke="#433b3a" stroke-width="1" /><line x1="2" y1="46" x2="180" y2="46" stroke="#433b3a" stroke-width="2" /><rect x="-6" y="38" width="18" height="7" rx="0" fill="#61504b" opacity=".6"/><line x1="12" y1="39" x2="12" y2="45" stroke="#433b3a" stroke-width="1" /><rect x="14" y="38" width="18" height="7" rx="0" fill="#61504b" opacity=".6"/><line x1="32" y1="39" x2="32" y2="45" stroke="#433b3a" stroke-width="1" /><rect x="34" y="38" width="18" height="7" rx="0" fill="#61504b" opacity=".6"/><line x1="52" y1="39" x2="52" y2="45" stroke="#433b3a" stroke-width="1" /><rect x="54" y="38" width="18" height="7" rx="0" fill="#81695b" opacity=".6"/><line x1="72" y1="39" x2="72" y2="45" stroke="#433b3a" stroke-width="1" /><rect x="74" y="38" width="18" height="7" rx="0" fill="#61504b" opacity=".6"/><line x1="92" y1="39" x2="92" y2="45" stroke="#433b3a" stroke-width="1" /><rect x="94" y="38" width="18" height="7" rx="0" fill="#61504b" opacity=".6"/><line x1="112" y1="39" x2="112" y2="45" stroke="#433b3a" stroke-width="1" /><rect x="114" y="38" width="18" height="7" rx="0" fill="#61504b" opacity=".6"/><line x1="132" y1="39" x2="132" y2="45" stroke="#433b3a" stroke-width="1" /><rect x="134" y="38" width="18" height="7" rx="0" fill="#81695b" opacity=".6"/><line x1="152" y1="39" x2="152" y2="45" stroke="#433b3a" stroke-width="1" /><rect x="154" y="38" width="18" height="7" rx="0" fill="#61504b" opacity=".6"/><line x1="172" y1="39" x2="172" y2="45" stroke="#433b3a" stroke-width="1" /><rect x="174" y="38" width="18" height="7" rx="0" fill="#61504b" opacity=".6"/><line x1="192" y1="39" x2="192" y2="45" stroke="#433b3a" stroke-width="1" /><line x1="2" y1="56" x2="180" y2="56" stroke="#433b3a" stroke-width="2" /><rect x="4" y="48" width="18" height="7" rx="0" fill="#61504b" opacity=".6"/><line x1="22" y1="49" x2="22" y2="55" stroke="#433b3a" stroke-width="1" /><rect x="24" y="48" width="18" height="7" rx="0" fill="#81695b" opacity=".6"/><line x1="42" y1="49" x2="42" y2="55" stroke="#433b3a" stroke-width="1" /><rect x="44" y="48" width="18" height="7" rx="0" fill="#61504b" opacity=".6"/><line x1="62" y1="49" x2="62" y2="55" stroke="#433b3a" stroke-width="1" /><rect x="64" y="48" width="18" height="7" rx="0" fill="#61504b" opacity=".6"/><line x1="82" y1="49" x2="82" y2="55" stroke="#433b3a" stroke-width="1" /><rect x="84" y="48" width="18" height="7" rx="0" fill="#61504b" opacity=".6"/><line x1="102" y1="49" x2="102" y2="55" stroke="#433b3a" stroke-width="1" /><rect x="104" y="48" width="18" height="7" rx="0" fill="#81695b" opacity=".6"/><line x1="122" y1="49" x2="122" y2="55" stroke="#433b3a" stroke-width="1" /><rect x="124" y="48" width="18" height="7" rx="0" fill="#61504b" opacity=".6"/><line x1="142" y1="49" x2="142" y2="55" stroke="#433b3a" stroke-width="1" /><rect x="144" y="48" width="18" height="7" rx="0" fill="#61504b" opacity=".6"/><line x1="162" y1="49" x2="162" y2="55" stroke="#433b3a" stroke-width="1" /><rect x="164" y="48" width="18" height="7" rx="0" fill="#61504b" opacity=".6"/><line x1="182" y1="49" x2="182" y2="55" stroke="#433b3a" stroke-width="1" /><rect x="184" y="48" width="18" height="7" rx="0" fill="#81695b" opacity=".6"/><line x1="202" y1="49" x2="202" y2="55" stroke="#433b3a" stroke-width="1" /></g><path d="M5 52L91.0 9L177 52" fill="none" stroke="#302c28" stroke-width="4" stroke-linejoin="round"/><line x1="5" y1="51" x2="177" y2="51" stroke="#302c28" stroke-width="4" /><line x1="8" y1="49" x2="174" y2="49" stroke="#bca47b" stroke-width="1.8" opacity=".66"/><line x1="91" y1="48" x2="91" y2="61" stroke="#302c28" stroke-width="2" /><circle cx="91" cy="69" r="14" fill="#554436" stroke="#302c28" stroke-width="2" /><circle cx="91" cy="69" r="11" fill="#bca47b" stroke="#302c28" stroke-width="1" /><path d="M85.0 73 L96.0 62 M87.0 62 L98.0 73" fill="none" stroke="#302c28" stroke-width="2" /><line x1="26" y1="121" x2="156" y2="121" stroke="#302c28" stroke-width="1.5" opacity=".45"/><line x1="23" y1="134" x2="159" y2="134" stroke="#bca47b" stroke-width="1" opacity=".52"/></g>
</svg>