<svg xmlns="http://www.w3.org/2000/svg" width="105" height="60" viewBox="0 0 105 60"><title>Quarry Rubble — Paws &amp; Plumes</title><g stroke-linecap="round" stroke-linejoin="round"><ellipse cx="52" cy="54" rx="48" ry="5" fill="#2b302c" opacity=".18"/><path d="M4 47 18 26l26 5 17 17-12 8H18Z" fill="#77776e" stroke="#393c37" stroke-width="3"/><path d="M14 42 24 31l17 5-6 15H21Z" fill="#aca99b"/><path d="M51 43 65 15l24 4 12 28-16 9H65Z" fill="#696e68" stroke="#343b36" stroke-width="4"/><path d="M65 18 84 22l-11 18-16 4Z" fill="#a09e92"/><path d="M85 25l10 20-19 6" fill="#4f5751"/><path d="m42 17 10-9 9 11-10 10Z" fill="#898a7e" stroke="#41453f" stroke-width="2"/><path d="M31 48q9-7 16-3m31 5 11-6" stroke="#637b52" fill="none" stroke-width="3"/></g></svg>